<svg width="309" height="70" viewBox="0 0 309 70" fill="none" xmlns="http://www.w3.org/2000/svg">
<g clip-path="url(#clip0_2_6)">
<path d="M21.408 52.736C18.3787 52.736 15.7973 52.0853 13.664 50.784C11.552 49.4827 9.83467 47.7333 8.512 45.536C7.18933 43.3173 6.21867 40.832 5.6 38.08C4.98133 35.3067 4.672 32.48 4.672 29.6C4.672 26.6347 4.992 23.776 5.632 21.024C6.272 18.2507 7.264 15.7653 8.608 13.568C9.97333 11.3707 11.712 9.632 13.824 8.352C15.936 7.072 18.464 6.432 21.408 6.432C23.712 6.432 25.6427 6.80533 27.2 7.552C28.7573 8.29866 30.0373 9.26933 31.04 10.464C32.0427 11.6587 32.8533 12.9067 33.472 14.208L28.8 16.736C28.0107 15.2427 27.0613 13.9627 25.952 12.896C24.8427 11.808 23.328 11.264 21.408 11.264C19.3387 11.264 17.5787 11.8187 16.128 12.928C14.6987 14.016 13.536 15.4667 12.64 17.28C11.7653 19.072 11.1253 21.0453 10.72 23.2C10.336 25.3547 10.144 27.488 10.144 29.6C10.144 31.904 10.3573 34.1547 10.784 36.352C11.232 38.5493 11.904 40.512 12.8 42.24C13.7173 43.968 14.88 45.344 16.288 46.368C17.7173 47.392 19.424 47.904 21.408 47.904C23.4133 47.904 25.024 47.3813 26.24 46.336C27.4773 45.2693 28.4907 43.8933 29.28 42.208L33.984 44C33.344 45.536 32.4693 46.9653 31.36 48.288C30.2507 49.6107 28.864 50.688 27.2 51.52C25.5573 52.3307 23.6267 52.736 21.408 52.736ZM59.1495 52.768C56.0988 52.768 53.4322 52.096 51.1495 50.752C48.8668 49.408 47.0855 47.4667 45.8055 44.928C44.5468 42.368 43.9175 39.2853 43.9175 35.68C43.9175 32.1173 44.5468 29.056 45.8055 26.496C47.0855 23.936 48.8668 21.9733 51.1495 20.608C53.4322 19.2213 56.0988 18.528 59.1495 18.528C62.2215 18.528 64.8988 19.2 67.1815 20.544C69.4855 21.888 71.2668 23.84 72.5255 26.4C73.7842 28.96 74.4135 32.032 74.4135 35.616C74.4135 39.1787 73.7842 42.24 72.5255 44.8C71.2668 47.36 69.4855 49.3333 67.1815 50.72C64.8988 52.0853 62.2215 52.768 59.1495 52.768ZM59.1495 47.968C62.3068 47.968 64.7388 46.8693 66.4455 44.672C68.1735 42.4747 69.0375 39.456 69.0375 35.616C69.0375 31.7973 68.2055 28.7893 66.5415 26.592C64.8775 24.3947 62.4135 23.296 59.1495 23.296C55.9282 23.296 53.4748 24.3733 51.7895 26.528C50.1042 28.6613 49.2615 31.712 49.2615 35.68C49.2615 39.4773 50.1042 42.4747 51.7895 44.672C53.4748 46.8693 55.9282 47.968 59.1495 47.968ZM97.595 52.768C94.6937 52.768 92.187 52.0747 90.075 50.688C87.963 49.28 86.3417 47.296 85.211 44.736C84.0803 42.176 83.515 39.136 83.515 35.616C83.515 32.032 84.091 28.9707 85.243 26.432C86.395 23.872 88.0163 21.92 90.107 20.576C92.219 19.2107 94.6937 18.528 97.531 18.528C99.6643 18.528 101.446 18.8373 102.875 19.456C104.304 20.0747 105.488 20.7893 106.427 21.6V8.32L111.643 5.792V52H106.427V49.248C105.552 50.1867 104.4 51.008 102.971 51.712C101.563 52.416 99.771 52.768 97.595 52.768ZM98.235 47.968C100.048 47.968 101.648 47.5733 103.035 46.784C104.443 45.9733 105.574 44.8213 106.427 43.328V27.648C105.808 26.6453 104.838 25.6747 103.515 24.736C102.192 23.776 100.422 23.296 98.203 23.296C95.195 23.296 92.891 24.3627 91.291 26.496C89.691 28.608 88.891 31.648 88.891 35.616C88.891 37.9413 89.2643 40.0427 90.011 41.92C90.7577 43.776 91.8243 45.248 93.211 46.336C94.619 47.424 96.2937 47.968 98.235 47.968ZM138.697 52.768C135.561 52.768 132.873 52 130.633 50.464C128.414 48.928 126.718 46.8587 125.545 44.256C124.371 41.6533 123.785 38.7733 123.785 35.616C123.785 32.0107 124.403 28.9387 125.641 26.4C126.878 23.84 128.606 21.888 130.825 20.544C133.065 19.2 135.689 18.528 138.697 18.528C141.15 18.528 143.401 19.0827 145.449 20.192C147.518 21.3013 149.171 23.0187 150.409 25.344C151.646 27.648 152.265 30.6133 152.265 34.24C152.265 34.6453 152.254 35.1467 152.233 35.744C152.233 36.32 152.19 36.9813 152.104 37.728H127.881V33.12H147.049C147.006 30.5173 146.537 28.5013 145.641 27.072C144.766 25.6213 143.689 24.608 142.409 24.032C141.129 23.456 139.891 23.168 138.697 23.168C135.369 23.168 132.926 24.224 131.369 26.336C129.811 28.4267 129.033 31.232 129.033 34.752C129.033 38.848 129.897 42.08 131.625 44.448C133.353 46.816 135.763 48 138.857 48C140.158 48 141.449 47.7973 142.729 47.392C144.009 46.9653 145.267 46.2613 146.505 45.28L149.449 48.704C148.083 49.8773 146.473 50.848 144.617 51.616C142.782 52.384 140.809 52.768 138.697 52.768Z" fill="white"/>
<g filter="url(#filter0_d_2_6)">
<path d="M149.793 52V8.36364H167.009C170.318 8.36364 173.138 8.99574 175.467 10.2599C177.797 11.5099 179.572 13.25 180.794 15.4801C182.03 17.696 182.648 20.2528 182.648 23.1506C182.648 26.0483 182.023 28.6051 180.773 30.821C179.523 33.0369 177.712 34.7628 175.339 35.9986C172.982 37.2344 170.126 37.8523 166.774 37.8523H155.801V30.4588H165.283C167.058 30.4588 168.521 30.1534 169.672 29.5426C170.837 28.9176 171.703 28.0582 172.271 26.9645C172.854 25.8565 173.145 24.5852 173.145 23.1506C173.145 21.7017 172.854 20.4375 172.271 19.358C171.703 18.2642 170.837 17.419 169.672 16.8224C168.507 16.2116 167.03 15.9062 165.24 15.9062H159.018V52H149.793ZM188.47 52V19.2727H197.547V52H188.47ZM193.029 15.054C191.68 15.054 190.522 14.6065 189.556 13.7116C188.605 12.8026 188.129 11.7159 188.129 10.4517C188.129 9.2017 188.605 8.12926 189.556 7.23438C190.522 6.32528 191.68 5.87074 193.029 5.87074C194.379 5.87074 195.529 6.32528 196.481 7.23438C197.447 8.12926 197.93 9.2017 197.93 10.4517C197.93 11.7159 197.447 12.8026 196.481 13.7116C195.529 14.6065 194.379 15.054 193.029 15.054ZM204.647 52V46.5881L220.67 26.7514V26.517H205.201V19.2727H231.6V25.1747L216.558 44.5213V44.7557H232.154V52H204.647ZM238.924 52V46.5881L254.947 26.7514V26.517H239.478V19.2727H265.877V25.1747L250.835 44.5213V44.7557H266.431V52H238.924ZM282.705 52.6179C280.616 52.6179 278.756 52.2557 277.122 51.5312C275.489 50.7926 274.196 49.706 273.244 48.2713C272.307 46.8224 271.838 45.0185 271.838 42.8594C271.838 41.0412 272.172 39.5142 272.839 38.2784C273.507 37.0426 274.416 36.0483 275.567 35.2955C276.717 34.5426 278.024 33.9744 279.487 33.5909C280.964 33.2074 282.513 32.9375 284.132 32.7812C286.036 32.5824 287.57 32.3977 288.734 32.2273C289.899 32.0426 290.744 31.7727 291.27 31.4176C291.795 31.0625 292.058 30.5369 292.058 29.8409V29.7131C292.058 28.3636 291.632 27.3196 290.78 26.581C289.942 25.8423 288.749 25.473 287.2 25.473C285.567 25.473 284.267 25.8352 283.301 26.5597C282.335 27.2699 281.696 28.1648 281.384 29.2443L272.989 28.5625C273.415 26.5739 274.253 24.8551 275.503 23.4062C276.753 21.9432 278.365 20.821 280.339 20.0398C282.328 19.2443 284.629 18.8466 287.243 18.8466C289.061 18.8466 290.801 19.0597 292.463 19.4858C294.139 19.9119 295.624 20.5724 296.916 21.4673C298.223 22.3622 299.253 23.5128 300.006 24.919C300.759 26.3111 301.135 27.9801 301.135 29.9261V52H292.527V47.4616H292.271C291.746 48.4844 291.043 49.3864 290.162 50.1676C289.281 50.9347 288.223 51.5384 286.987 51.9787C285.751 52.4048 284.324 52.6179 282.705 52.6179ZM285.304 46.3537C286.639 46.3537 287.818 46.0909 288.841 45.5653C289.864 45.0256 290.666 44.3011 291.249 43.392C291.831 42.483 292.122 41.4531 292.122 40.3026V36.8295C291.838 37.0142 291.447 37.1847 290.95 37.3409C290.467 37.483 289.92 37.6179 289.31 37.7457C288.699 37.8594 288.088 37.9659 287.477 38.0653C286.866 38.1506 286.312 38.2287 285.815 38.2997C284.75 38.456 283.82 38.7045 283.024 39.0455C282.229 39.3864 281.611 39.848 281.17 40.4304C280.73 40.9986 280.51 41.7088 280.51 42.5611C280.51 43.7969 280.957 44.7415 281.852 45.3949C282.761 46.0341 283.912 46.3537 285.304 46.3537Z" fill="#FF3F4B"/>
</g>
</g>
<defs>
<filter id="filter0_d_2_6" x="143.793" y="3.87074" width="163.342" height="58.7472" filterUnits="userSpaceOnUse" color-interpolation-filters="sRGB">
<feFlood flood-opacity="0" result="BackgroundImageFix"/>
<feColorMatrix in="SourceAlpha" type="matrix" values="0 0 0 0 0 0 0 0 0 0 0 0 0 0 0 0 0 0 127 0" result="hardAlpha"/>
<feOffset dy="4"/>
<feGaussianBlur stdDeviation="3"/>
<feComposite in2="hardAlpha" operator="out"/>
<feColorMatrix type="matrix" values="0 0 0 0 0 0 0 0 0 0 0 0 0 0 0 0 0 0 0.25 0"/>
<feBlend mode="normal" in2="BackgroundImageFix" result="effect1_dropShadow_2_6"/>
<feBlend mode="normal" in="SourceGraphic" in2="effect1_dropShadow_2_6" result="shape"/>
</filter>
<clipPath id="clip0_2_6">
<rect width="309" height="70" fill="white"/>
</clipPath>
</defs>
</svg>
